<svg width="28" height="28" viewBox="0 0 28 28" fill="none" xmlns="http://www.w3.org/2000/svg"><path fill-rule="evenodd" clip-rule="evenodd" d="M26 14c0 6.6274-5.3726 12-12 12-6.62742 0-12-5.3726-12-12C2 7.37258 7.37258 2 14 2c6.6274 0 12 5.37258 12 12Zm-9.5268-5.964C15.8336 8.006 15.6302 8 14 8c-1.6302 0-1.8336.0078-2.4732.036-.6396.03-1.074.1302-1.4568.279a2.93825 2.93825 0 0 0-1.0632.6918A2.92795 2.92795 0 0 0 8.315 10.07c-.1488.3828-.249.8172-.279 1.4568C8.006 12.1664 8 12.3698 8 14c0 1.6302.0078 1.8336.036 2.4732.03.639.1302 1.0746.279 1.4568a2.9423 2.9423 0 0 0 .6918 1.0632c.29972.3054.6626.5415 1.0632.6918.3828.1482.8178.249 1.4568.279.6396.03.843.036 2.4732.036 1.6302 0 1.8336-.0078 2.4732-.036.639-.03 1.0746-.1308 1.4568-.279a2.94793 2.94793 0 0 0 1.0632-.6918c.3055-.2996.5416-.6625.6918-1.0632.1482-.3828.249-.8178.279-1.4568.03-.6396.036-.843.036-2.4732 0-1.6302-.0078-1.8336-.036-2.4732-.03-.639-.1308-1.0746-.279-1.4568a2.94438 2.94438 0 0 0-.6918-1.0632c-.3336-.333-.6672-.5394-1.0632-.6918-.3828-.1488-.8178-.249-1.4568-.279Zm-4.5945 3.8427A3.00008 3.00008 0 0 1 14 11a3.00008 3.00008 0 0 1 3 3 3.00008 3.00008 0 0 1-3 3 3.00008 3.00008 0 0 1-3-3c0-.7956.3161-1.5587.8787-2.1213Zm5.8016-1.559a.74969.74969 0 0 1 .2197.5303c0 .1989-.079.3897-.2197.5303a.74969.74969 0 0 1-.5303.2197.74969.74969 0 0 1-.5303-.2197.74969.74969 0 0 1-.2197-.5303c0-.1989.079-.3897.2197-.5303A.74969.74969 0 0 1 17.15 10.1c.1989 0 .3897.079.5303.2197Zm-2.4075 2.4075A1.7999 1.7999 0 0 0 14 12.2c-.4774 0-.9352.1896-1.2728.5272A1.7999 1.7999 0 0 0 12.2 14c0 .4774.1896.9352.5272 1.2728A1.7999 1.7999 0 0 0 14 15.8c.4774 0 .9352-.1896 1.2728-.5272A1.7999 1.7999 0 0 0 15.8 14c0-.4774-.1896-.9352-.5272-1.2728Z" fill="#FCFCFC"/><path d="M14 24C8.47715 24 4 19.5228 4 14H0c0 7.732 6.26801 14 14 14v-4Zm10-10c0 5.5228-4.4772 10-10 10v4c7.732 0 14-6.268 14-14h-4ZM14 4c5.5228 0 10 4.47715 10 10h4c0-7.73199-6.268-14-14-14v4Zm0-4C6.26801 0 0 6.26801 0 14h4C4 8.47715 8.47715 4 14 4V0Z" fill="#FCFCFC" fill-opacity=".2"/></svg>